Coordinates
version=1
nRows=5
nColumns=40
inDegrees=yes

Units are S.I. units (second, meters, Newtons, ...)
Angles are in degrees.

endheader
time	pelvis_tilt	pelvis_list	pelvis_rotation	pelvis_tx	pelvis_ty	pelvis_tz	hip_flexion_r	hip_adduction_r	hip_rotation_r	knee_angle_r	knee_angle_r_beta	ankle_angle_r	subtalar_angle_r	mtp_angle_r	hip_flexion_l	hip_adduction_l	hip_rotation_l	knee_angle_l	knee_angle_l_beta	ankle_angle_l	subtalar_angle_l	mtp_angle_l	lumbar_extension	lumbar_bending	lumbar_rotation	arm_flex_r	arm_add_r	arm_rot_r	elbow_flex_r	pro_sup_r	wrist_flex_r	wrist_dev_r	arm_flex_l	arm_add_l	arm_rot_l	elbow_flex_l	pro_sup_l	wrist_flex_l	wrist_dev_l
      0.52000000	     -0.75606918	     -1.32027204	     -4.99425035	     -0.67928131	      0.86597548	     -0.98721132	    -10.78467747	      1.07388661	     -6.62469282	    -21.66564304	     -0.37813681	     15.30333929	      6.19847004	     -7.75071653	     30.81637669	      4.98008202	     12.10406197	    -21.01764327	     -0.36682708	     -2.24126058	     -2.89263290	     -9.16459526	    -10.29209182	      2.02441953	      9.34802325	     20.99308635	    -15.03754005	     15.46894955	     28.08700404	     89.95437384	      0.00000000	      0.00000000	     -8.35526857	     12.48262610	    -10.44693150	     16.21773804	     89.95437384	      0.00000000	      0.00000000
      0.53000000	     -0.65810141	     -0.90961335	     -5.47068143	     -0.66566295	      0.86565365	     -0.98757418	    -11.32024422	      0.27453639	     -6.23799852	    -22.39297560	     -0.39083115	     14.39670839	      6.06027647	     -7.68991653	     30.51137060	      4.52289061	     11.90785487	    -21.86254430	     -0.38157338	     -2.17013774	     -2.00543608	     -8.89142528	    -10.23508163	      1.46510406	      9.53467475	     20.72460693	    -14.84593312	     15.00621021	     28.51903367	     89.95437384	      0.00000000	      0.00000000	     -8.25982828	     12.22171522	    -10.72371964	     15.10133434	     89.95437384	      0.00000000	      0.00000000
      0.54000000	     -0.63729773	     -0.54826227	     -5.75405834	     -0.65179634	      0.86533546	     -0.98808628	    -11.68528890	     -0.33936372	     -5.75290190	    -23.29678722	     -0.40660564	     13.32025093	      5.86491016	     -7.48067280	     30.31237947	      3.99392584	     11.38147297	    -23.19599925	     -0.40484656	     -3.19306335	     -1.27482422	     -8.43884797	    -10.09982348	      0.95449521	      9.38891026	     20.42382857	    -14.57985362	     14.79340703	     28.91902479	     89.95437384	      0.00000000	      0.00000000	     -8.47810708	     12.06342012	    -10.90276356	     14.54750246	     89.95437384	      0.00000000	      0.00000000
      0.55000000	     -0.51129890	     -0.11532364	     -6.09745435	     -0.63744798	      0.86566831	     -0.98889616	    -12.10418802	     -1.18299100	     -5.56136028	    -24.22397796	     -0.42278817	     11.74353364	      5.63294822	     -7.26131177	     29.80997155	      3.35658630	     11.10604369	    -24.50636822	     -0.42771681	     -4.62960949	      0.11434028	     -7.85830802	     -9.97436680	      0.40845969	      9.34907884	     20.08422407	    -14.26546556	     14.41525707	     28.96230337	     89.95437384	      0.00000000	      0.00000000	     -8.18327529	     11.68351830	    -11.51566144	     12.90724542	     89.95437384	      0.00000000	      0.00000000
      0.56000000	     -0.51012034	      0.42250734	     -6.27347670	     -0.62311620	      0.86614115	     -0.98985899	    -12.11588009	     -2.02739091	     -5.28225881	    -25.58325227	     -0.44651199	      9.85545760	      5.13548229	     -6.94717849	     29.47117078	      2.46785482	     10.18541348	    -25.69676701	     -0.44849319	     -4.37267424	      0.58337384	     -7.56095131	     -9.73184868	     -0.24821023	      9.13617762	     19.59525776	    -13.92044402	     14.02534262	     29.08646272	     89.95437384	      0.00000000	      0.00000000	     -7.99357437	     11.40549765	    -12.01687558	     11.78767160	     89.95437384	      0.00000000	      0.00000000
